<svg xmlns="http://www.w3.org/2000/svg" width="430" height="430" fill="none" viewBox="0 0 430 430"><path fill="#4bb3fd" d="M145 195c-11.046 0-20 8.954-20 20v130c0 11.046 8.954 20 20 20h71.667L250 400l33.333-35H355c11.046 0 20-8.954 20-20V215c0-11.046-8.954-20-20-20z"/><path fill="#4bb3fd" d="M125 215c0-11.046 8.954-20 20-20h25c-11.046 0-20 8.954-20 20v130c0 11.046 8.954 20 20 20h-25c-11.046 0-20-8.954-20-20z" opacity=".5" style="mix-blend-mode:multiply"/><path stroke="#121331" stroke-linecap="round" stroke-linejoin="round" stroke-miterlimit="10" stroke-width="7" d="M145 195c-11.046 0-20 8.954-20 20v130c0 11.046 8.954 20 20 20h71.667L250 400l33.333-35H355c11.046 0 20-8.954 20-20V215c0-11.046-8.954-20-20-20z"/><path fill="#ebe6ef" d="M75 50c-11.046 0-20 8.954-20 20v130c0 11.046 8.954 20 20 20h71.667L180 255l33.333-35H285c11.046 0 20-8.954 20-20V70c0-11.046-8.954-20-20-20z"/><path fill="#ebe6ef" d="M55 70c0-11.046 8.954-20 20-20h25c-11.046 0-20 8.954-20 20v130c0 11.046 8.954 20 20 20H75c-11.046 0-20-8.954-20-20z" opacity=".5" style="mix-blend-mode:multiply"/><path fill="#ffc738" d="m180 85 14.695 29.775 32.858 4.774-23.777 23.176 5.613 32.726L180 160l-29.389 15.451 5.613-32.726-23.777-23.176 32.858-4.774z"/><path fill="#ffc738" d="M150.611 175.451 180 160V85l-14.695 29.775-32.858 4.774 23.777 23.176z" opacity=".5" style="mix-blend-mode:multiply"/><path stroke="#121331" stroke-linecap="round" stroke-width="7" d="M186 325h65m-65-35h130m-130-35h130"/><path stroke="#121331" stroke-linecap="round" stroke-linejoin="round" stroke-miterlimit="10" stroke-width="7" d="M75 50c-11.046 0-20 8.954-20 20v130c0 11.046 8.954 20 20 20h71.667L180 255l33.333-35H285c11.046 0 20-8.954 20-20V70c0-11.046-8.954-20-20-20z"/><path stroke="#121331" stroke-linecap="round" stroke-linejoin="round" stroke-width="7" d="m180 85 14.695 29.775 32.858 4.774-23.777 23.176 5.613 32.726L180 160l-29.389 15.451 5.613-32.726-23.777-23.176 32.858-4.774z"/></svg>